PathFileType	4	(X/Y/Z)	/Users/itak/Documents/Research/Walk-IL/dataset/trc/00538_00009.trc
DataRate	CameraRate	NumFrames	NumMarkers	Units	OrigDataRate	OrigDataStartFrame	OrigNumFrames
100.000000	100.000000	4	55	mm	100.000000	507	676
Frame#	Time	RPSI			LPSI			L3			STRN			T10			C7			CLAV			RBAK			LBAK			LSHO			LUPA			LAEL			LAOL			LWTS			LWPS			LFRA			LIFD			LHPS			LHTS			RSHO			RUPA			RAEL			RAOL			RWTS			RWPS			RFRA			RIFD			RHTS			RHPS			RBHD			LFHD			RFHD			LBHD			LHIP			RHIP			RASI			LASI			LKNE			LTHI			LANK			LTIP			LTOE			LMT1			LMT5			LHEE			RKNE			RTHI			RANK			RTIP			RTOE			RMT5			RHEE			RMT1			*53			*54			
		X1	Y1	Z1	X2	Y2	Z2	X3	Y3	Z3	X4	Y4	Z4	X5	Y5	Z5	X6	Y6	Z6	X7	Y7	Z7	X8	Y8	Z8	X9	Y9	Z9	X10	Y10	Z10	X11	Y11	Z11	X12	Y12	Z12	X13	Y13	Z13	X14	Y14	Z14	X15	Y15	Z15	X16	Y16	Z16	X17	Y17	Z17	X18	Y18	Z18	X19	Y19	Z19	X20	Y20	Z20	X21	Y21	Z21	X22	Y22	Z22	X23	Y23	Z23	X24	Y24	Z24	X25	Y25	Z25	X26	Y26	Z26	X27	Y27	Z27	X28	Y28	Z28	X29	Y29	Z29	X30	Y30	Z30	X31	Y31	Z31	X32	Y32	Z32	X33	Y33	Z33	X34	Y34	Z34	X35	Y35	Z35	X36	Y36	Z36	X37	Y37	Z37	X38	Y38	Z38	X39	Y39	Z39	X40	Y40	Z40	X41	Y41	Z41	X42	Y42	Z42	X43	Y43	Z43	X44	Y44	Z44	X45	Y45	Z45	X46	Y46	Z46	X47	Y47	Z47	X48	Y48	Z48	X49	Y49	Z49	X50	Y50	Z50	X51	Y51	Z51	X52	Y52	Z52	X53	Y53	Z53	X54	Y54	Z54	X55	Y55	Z55	

508	5.07	884.417236328125	1001.686401367188	513.357666015625	890.5210571289062	998.3102416992188	380.17529296875	892.3231811523438	1095.396362304688	445.9701843261719	1127.862670898438	1275.1474609375	439.9306030273438	885.516845703125	1221.224365234375	447.0785827636719	941.218994140625	1491.649291992188	463.7291870117188	1111.675170898438	1386.654052734375	440.7327575683594	872.2378540039062	1370.523803710938	555.1138305664062	900.65771484375	1440.179931640625	373.3055419921875	994.6478271484375	1461.139892578125	285.4110717773438	973.0599975585938	1335.103759765625	207.1458892822266	974.517822265625	1113.07568359375	182.5993041992188	894.177001953125	1110.7431640625	244.5879516601562	1056.648681640625	863.7826538085938	213.6644439697266	998.9109497070312	844.9319458007812	150.6056365966797	990.5872802734375	1025.64111328125	171.9738311767578	1041.119262695312	693.6905517578125	209.3473052978516	1004.516662597656	784.3543701171875	157.2597198486328	1063.390258789062	785.843017578125	191.5277862548828	1014.018798828125	1450.753662109375	615.0531616210938	997.5744018554688	1385.28955078125	682.0980834960938	989.6806640625	1096.331420898438	730.885986328125	932.3236694335938	1079.507446289062	707.5932006835938	1120.885620117188	876.5863647460938	686.385498046875	1080.82666015625	856.4874877929688	754.4104614257812	999.8619995117188	1041.2724609375	738.631103515625	1132.388427734375	703.383544921875	689.2681884765625	1150.438598632812	785.0454711914062	699.497802734375	1097.986083984375	782.9229736328125	752.7973022460938	1034.1240234375	1671.215698242188	521.5647583007812	1186.641723632812	1681.656494140625	380.4648132324219	1174.675537109375	1680.747192382812	525.0635986328125	1054.943725585938	1669.838623046875	357.8783569335938	1029.62451171875	919.7556762695312	258.8584594726562	994.9650268554688	929.0792236328125	645.2254638671875	1088.3740234375	953.6829223632812	592.4030151367188	1101.771118164062	946.3209838867188	316.7737121582031	1185.953247070312	503.977783203125	308.3019714355469	1127.3525390625	658.153564453125	269.7367553710938	1270.199462890625	34.02545547485352	303.3995666503906	1208.448608398438	255.5235900878906	295.8148803710938	1460.323120117188	102.3359146118164	372.0021667480469	1389.803955078125	83.39572143554688	403.0079956054688	1386.63916015625	61.97238922119141	300.0748596191406	1198.914184570312	27.34708023071289	352.4879455566406	947.6253662109375	487.9967041015625	575.878173828125	1011.71484375	770.6102294921875	635.2265625	788.77392578125	43.74888229370117	524.1578369140625	921.2680053710938	347.2860107421875	551.54150390625	1010.208312988281	40.28122711181641	487.3566589355469	920.7932739257812	39.88901138305664	547.74853515625	734.1624145507812	43.26327514648438	466.2549133300781	946.4884033203125	43.7613525390625	446.0168762207031	nan	nan	nan	nan	nan	nan	
509	5.08	890.5372314453125	1001.137268066406	511.4322204589844	897.0965576171875	997.7550048828125	378.3153381347656	898.49560546875	1094.585815429688	443.9868774414062	1133.72119140625	1274.744018554688	439.0623168945312	891.3189697265625	1220.446533203125	444.9623718261719	946.6134643554688	1491.033935546875	461.8173522949219	1117.315063476562	1386.241943359375	439.73974609375	877.3543701171875	1369.748657226562	552.9327392578125	906.6004028320312	1439.47265625	371.1351928710938	1000.936218261719	1460.382934570312	283.7470397949219	979.8416137695312	1334.188720703125	205.5364379882812	981.260009765625	1112.09375	181.2850799560547	900.7837524414062	1109.941528320312	243.05810546875	1062.155395507812	862.3538818359375	212.8538818359375	1004.672058105469	843.8189697265625	149.4344024658203	997.0535278320312	1024.563354492188	170.8221130371094	1045.68701171875	692.35693359375	208.3886108398438	1009.851135253906	783.2290649414062	156.1447448730469	1068.546997070312	784.3605346679688	190.7378997802734	1018.57666015625	1450.188598632812	613.4491577148438	1001.986206054688	1384.779174804688	680.5418701171875	994.3199462890625	1095.797485351562	729.3880615234375	937.1031494140625	1078.929931640625	705.7933349609375	1125.631469726562	875.9039916992188	685.9325561523438	1085.191284179688	855.9432983398438	753.7597045898438	1004.44287109375	1040.755859375	737.2911987304688	1137.058349609375	702.6917114257812	689.1902465820312	1155.085083007812	784.3896484375	699.40185546875	1102.25146484375	782.321044921875	752.3806762695312	1039.254272460938	1670.784545898438	520.1025390625	1192.051513671875	1681.286499023438	379.3055725097656	1179.758422851562	1680.422973632812	523.88671875	1060.3681640625	1669.33544921875	356.4860229492188	1036.772094726562	919.063232421875	257.8993835449219	1000.512878417969	928.7011108398438	643.8416137695312	1094.219116210938	953.2100830078125	591.5546264648438	1108.7802734375	945.7176513671875	315.9648742675781	1191.103759765625	502.6808471679688	308.2016906738281	1133.593627929688	657.1974487304688	269.3881225585938	1271.710571289062	32.94226455688477	303.5106811523438	1212.291137695312	254.2161407470703	296.2123718261719	1463.36474609375	96.75721740722656	372.4563293457031	1392.435180664062	79.36252593994141	403.4897766113281	1388.675659179688	58.11286926269531	300.5986938476562	1200.3173828125	28.0819206237793	352.8418579101562	951.3419189453125	487.9404907226562	575.182861328125	1016.816589355469	770.0562133789062	634.1392822265625	789.072509765625	44.47269058227539	524.1589965820312	923.8968505859375	347.35986328125	551.1187744140625	1010.276245117188	40.24900436401367	487.4100036621094	920.8834838867188	39.85833740234375	547.7979125976562	734.430908203125	44.52687835693359	466.390869140625	946.5911254882812	43.85666275024414	446.16796875	nan	nan	nan	nan	nan	nan	
510	5.09	896.7327880859375	1000.674926757812	509.5465087890625	903.6788940429688	997.35986328125	376.4765014648438	904.7565307617188	1093.919921875	442.0377197265625	1139.61474609375	1274.467163085938	438.1495361328125	897.1375732421875	1219.779174804688	442.8921813964844	952.0543212890625	1490.541015625	459.8765258789062	1122.993530273438	1385.953735351562	438.6849670410156	882.5138549804688	1369.089965820312	550.7203979492188	912.5744018554688	1438.900512695312	368.9298095703125	1007.25390625	1459.759399414062	282.0563659667969	986.679931640625	1333.3984375	203.8921356201172	988.140380859375	1111.23779296875	179.9302520751953	907.52490234375	1109.239624023438	241.4596405029297	1067.853515625	861.087646484375	212.0011138916016	1010.650024414062	842.8483276367188	148.2092590332031	1003.684875488281	1023.618225097656	169.6296234130859	1050.505126953125	691.1799926757812	207.3883056640625	1015.426025390625	782.2515869140625	154.9661865234375	1073.923583984375	783.0359497070312	189.9110107421875	1023.084411621094	1449.677978515625	611.7492065429688	1006.44287109375	1384.386108398438	678.9513549804688	999.0230102539062	1095.374633789062	727.8384399414062	941.9558715820312	1078.449584960938	703.9349975585938	1130.451904296875	875.33154296875	685.4456176757812	1089.633544921875	855.5355224609375	753.09033203125	1009.107299804688	1040.361083984375	735.8953857421875	1141.810180664062	702.1137084960938	689.1163940429688	1159.81689453125	783.8569946289062	699.3021240234375	1106.607788085938	781.8458251953125	751.9483032226562	1044.44091796875	1670.473022460938	518.6156616210938	1197.520263671875	1681.036254882812	378.1202087402344	1184.901123046875	1680.217651367188	522.6845703125	1065.861083984375	1668.963256835938	355.0574340820312	1043.864990234375	918.6058959960938	256.8677062988281	1006.23779296875	928.3423461914062	642.4049072265625	1100.178344726562	952.8045654296875	590.6055297851562	1115.762573242188	945.3268432617188	315.0492248535156	1196.25048828125	501.6127014160156	308.0286560058594	1139.815185546875	656.442138671875	268.9378662109375	1272.939208984375	32.09588623046875	303.5424194335938	1216.112670898438	253.1237640380859	296.5113220214844	1466.281860351562	90.73550415039062	372.8646545410156	1394.922485351562	75.13883209228516	403.8933410644531	1390.49658203125	54.12939453125	301.0154724121094	1201.489135742188	29.11299896240234	353.1477661132812	955.220703125	487.9493713378906	574.3950805664062	1022.032409667969	769.5693969726562	632.9514770507812	789.3945922851562	45.33000946044922	524.1591186523438	926.6552124023438	347.5147094726562	550.6431274414062	1010.360656738281	40.2166748046875	487.4586486816406	920.9758911132812	39.83056259155273	547.8297729492188	734.7296142578125	45.95638656616211	466.521484375	946.7183227539062	43.96213912963867	446.3107299804688	nan	nan	nan	nan	nan	nan	
511	5.100000000000001	902.99365234375	1000.322631835938	507.7249755859375	910.2493286132812	997.1525268554688	374.6849975585938	911.0811157226562	1093.428588867188	440.1667175292969	1145.536499023438	1274.33837890625	437.1886291503906	902.9816284179688	1219.256591796875	440.9044189453125	957.5430908203125	1490.191284179688	457.9194030761719	1128.710083007812	1385.809692382812	437.5635375976562	887.7210693359375	1368.581665039062	548.4961547851562	918.5640258789062	1438.480102539062	366.7254943847656	1013.590942382812	1459.298095703125	280.3465270996094	993.557861328125	1332.766723632812	202.2199249267578	995.1512451171875	1110.542114257812	178.5450286865234	914.3912353515625	1108.668701171875	239.7998046875	1073.752319335938	860.0179443359375	211.1002807617188	1016.846801757812	842.0574951171875	146.9318695068359	1010.477783203125	1022.843505859375	168.3991241455078	1055.576538085938	690.1939086914062	206.3405303955078	1021.24560546875	781.4547729492188	153.7241973876953	1079.527954101562	781.9061279296875	189.0379180908203	1027.586059570312	1449.274169921875	609.9844970703125	1010.963806152344	1384.140502929688	677.334228515625	1003.789489746094	1095.0927734375	726.2357788085938	946.8756103515625	1078.099731445312	702.0121459960938	1135.33447265625	874.8934936523438	684.9215087890625	1094.133666992188	855.2880859375	752.3961791992188	1013.849792480469	1040.119995117188	734.4404296875	1146.619262695312	701.67236328125	689.0394897460938	1164.608764648438	783.4651489257812	699.1904907226562	1111.04541015625	781.5343627929688	751.4945068359375	1049.688354492188	1670.301635742188	517.1043090820312	1203.052001953125	1680.920166015625	376.9083862304688	1190.117309570312	1680.1474609375	521.4596557617188	1071.429931640625	1668.74267578125	353.5910949707031	1050.875854492188	918.429443359375	255.7402954101562	1012.112487792969	928.0244140625	640.93505859375	1106.246459960938	952.4867553710938	589.549560546875	1122.690307617188	945.1810302734375	314.0148315429688	1201.412963867188	500.8219909667969	307.7385864257812	1146.00048828125	655.932373046875	268.36181640625	1273.990844726562	31.47437286376953	303.5079956054688	1219.936767578125	252.2611541748047	296.6658935546875	1469.056640625	84.61865234375	373.2085266113281	1397.275268554688	70.96151733398438	404.1930847167969	1392.164428710938	50.2468147277832	301.2929382324219	1202.540893554688	30.32308006286621	353.3944702148438	959.2739868164062	488.0380859375	573.5224609375	1027.420654296875	769.338134765625	631.8992309570312	789.7455444335938	46.34153747558594	524.1680908203125	929.5557250976562	347.7589416503906	550.1233520507812	1010.465698242188	40.18296051025391	487.5006408691406	921.0728149414062	39.80545806884766	547.8465576171875	735.0574340820312	47.57780456542969	466.6443481445312	946.8726196289062	44.08587265014648	446.436279296875	nan	nan	nan	nan	nan	nan	
